# xmcd
#
# Track frame offsets:
#	150
#	17844
#	38208
#	60244
#	83409
#	108460
#	131517
#
# Disc length: 1962 seconds
#
# Revision: 1
# Processed by: cddbd v1.5PL3 Copyright (c) Steve Scherf et al.
# Submitted via: CDex 1.50Beta5
#
DISCID=4b07a807
DTITLE=LAW DOWN - LAW DOWN
DYEAR=1900
DGENRE=R&B
TTITLE0=5th.Avenue
TTITLE1=Rude Boy
TTITLE2=Silent
TTITLE3=幻想
TTITLE4=BAR MAN
TTITLE5=AFRIKA
TTITLE6=Feather of the Angel
EXTD=
EXTT0=
EXTT1=
EXTT2=
EXTT3=
EXTT4=
EXTT5=
EXTT6=
PLAYORDER=
